<svg width="36" height="36" viewBox="0 0 36 36" fill="none" xmlns="http://www.w3.org/2000/svg">
<path d="M28.5 4.5C30.1569 4.5 31.5 5.84315 31.5 7.5V28.5C31.5 30.1569 30.1569 31.5 28.5 31.5H7.5C5.84315 31.5 4.5 30.1569 4.5 28.5V7.5C4.5 5.84315 5.84315 4.5 7.5 4.5H28.5ZM8.6377 14.75V27.75H12.6641V14.75H8.6377ZM23.0186 14.3525C20.2653 14.3525 19.1032 16.4926 19.0986 16.501V14.75H15.2373V27.75H19.0986V20.9258C19.0986 19.0973 19.9407 18.0088 21.5518 18.0088C23.0325 18.0089 23.7432 19.0549 23.7432 20.9258V27.75H27.75V19.5195C27.75 16.037 25.7759 14.3526 23.0186 14.3525ZM10.6309 8.25C9.31584 8.25008 8.25024 9.32395 8.25 10.6484C8.25 11.9731 9.31569 13.0478 10.6309 13.0479C11.9461 13.0479 13.0117 11.9732 13.0117 10.6484C13.0115 9.3239 11.9459 8.25 10.6309 8.25Z" fill="white"/>
</svg>
