<svg width="46" height="45" viewBox="0 0 46 45" fill="none" xmlns="http://www.w3.org/2000/svg">
<path d="M11.493 5.67884C11.8024 5.37188 13.9407 4.0603 16.5291 2.58129C19.0049 1.15809 21.0728 0 21.1431 0C21.1994 0 21.2275 5.26026 21.1713 23.3712L20.7774 24.027C20.5664 24.4037 20.1865 24.8362 19.9333 25.0037C19.6942 25.185 18.3437 25.9664 16.9511 26.7617C15.5584 27.5571 12.4917 29.3151 10.1284 30.6686C7.76514 32.008 4.54373 33.8638 2.95413 34.7707C1.36453 35.6777 0.0562691 36.4172 0.0281346 36.4172C0.0140673 36.4172 0 34.0173 0 31.0871C0 26.7338 0.0422018 25.6315 0.211009 25.1153C0.323547 24.7665 0.633028 24.2642 0.886239 23.9991C1.15352 23.7339 2.63058 22.7991 4.16391 21.9201C5.69725 21.041 7.77921 19.8411 10.5645 18.2086L10.5505 12.9065C10.5505 8.70663 10.5927 7.46482 10.7474 6.9067C10.874 6.46021 11.1413 6.02767 11.493 5.67884Z" fill="#FF1744"/>
<path d="M24.9976 23.5107C24.7725 22.8689 24.7584 21.8503 24.7725 11.3856C24.8006 1.00461 24.8287 -0.0279059 25.0257 0.0697647C25.1523 0.111623 27.0936 1.19995 29.3303 2.46967C31.567 3.75334 33.6771 4.96725 34.0006 5.19049C34.3382 5.39979 34.7743 5.87419 35.3792 6.9067L35.5199 18.2783L39.9511 20.8317C42.3847 22.227 44.5651 23.4967 44.7902 23.6502C45.0153 23.8037 45.3529 24.2083 45.9297 25.1851L46 36.4172L45.1982 35.9707C44.748 35.7195 40.3028 33.194 35.3089 30.3337C30.315 27.4873 26.0104 24.9478 25.7431 24.6827C25.4477 24.4176 25.1382 23.9014 24.9976 23.5107Z" fill="#FF1744"/>
<path d="M4.31865 37.9938C5.69725 37.2264 10.4239 34.5056 14.841 31.9662C19.2581 29.4407 22.9015 27.3617 22.9578 27.3478C23.0281 27.3478 24.1254 27.9477 25.4196 28.7012C26.7278 29.4407 29.1755 30.836 30.8777 31.8127C32.5798 32.7894 35.3651 34.394 37.0673 35.3707C38.5518 36.2225 40.4858 37.3291 41.684 38.0147L42.1596 38.2869C43.2569 38.9008 44.115 39.4589 44.0587 39.5147C44.0024 39.5566 42.1174 40.6449 39.8807 41.9286C37.644 43.2122 35.4777 44.4261 35.0979 44.6215C34.6055 44.8726 34.1553 44.9843 33.6067 44.9843C32.9596 44.9982 32.6361 44.9145 31.8483 44.4959C31.3138 44.2169 29.1193 42.975 26.967 41.7332L26.6981 41.5788C24.6821 40.4212 23.0551 39.4868 23.0281 39.4868C23.0141 39.4868 21.0446 40.603 18.6391 41.9704C16.2336 43.3378 14.0954 44.5657 13.8563 44.6773C13.6171 44.7889 13.181 44.9285 12.8716 44.9703C12.5621 45.0261 12.0557 44.9982 11.7462 44.9285C11.4367 44.8587 9.07339 43.6029 1.81468 39.417L4.31865 37.9938Z" fill="#FF1744"/>
</svg>
