<svg width="24" height="24" viewBox="0 0 24 24" fill="none" xmlns="http://www.w3.org/2000/svg">
<g clip-path="url(#clip0_171_12413)">
<path d="M15.004 20.004V22.816C15.004 23.113 14.872 23.395 14.644 23.585C14.463 23.736 14.237 23.816 14.004 23.816C13.943 23.816 13.883 23.811 13.823 23.799C10.824 23.248 8.07105 21.5 6.26905 19.005H4.99905C2.24205 19.004 -0.00195312 16.761 -0.00195312 14.002V10.001C-0.00195312 8.885 0.359047 7.828 1.04305 6.944C1.38305 6.507 2.00905 6.428 2.44605 6.765C2.88305 7.103 2.96305 7.731 2.62505 8.168C2.21505 8.697 1.99805 9.331 1.99805 10V14.001C1.99805 15.656 3.34505 17.003 5.00005 17.003H6.78005C7.10105 17.003 7.40205 17.157 7.59105 17.417L7.89105 17.832C9.15405 19.581 10.974 20.889 13.004 21.535V20.003C13.004 19.451 13.451 19.003 14.004 19.003C14.557 19.003 15.004 19.452 15.004 20.004ZM23.7071 23.707C23.5121 23.902 23.2561 24 23 24C22.7441 24 22.4881 23.902 22.293 23.707L0.293047 1.707C-0.0979531 1.316 -0.0979531 0.683999 0.293047 0.292999C0.684047 -0.0980008 1.31605 -0.0980008 1.70705 0.292999L6.33005 4.916C8.13105 2.468 10.855 0.752999 13.822 0.204999C14.115 0.151999 14.416 0.229999 14.643 0.419999C14.872 0.609999 15.003 0.891999 15.003 1.189V13.591L16.689 15.277C17.535 14.39 17.9991 13.231 17.9991 12.001C17.9991 10.732 17.5051 9.54 16.607 8.642C16.216 8.252 16.216 7.619 16.607 7.228C16.9981 6.837 17.63 6.837 18.021 7.228C19.296 8.503 19.9991 10.198 19.9991 12.001C19.9991 13.765 19.326 15.426 18.1031 16.691L19.518 18.106C22.848 14.688 22.8221 9.198 19.437 5.814C19.0461 5.423 19.0461 4.791 19.437 4.4C19.8281 4.009 20.4601 4.009 20.851 4.4C25.0151 8.564 25.042 15.322 20.932 19.52L23.706 22.294C24.097 22.685 24.097 23.317 23.706 23.708L23.7071 23.707ZM7.76205 6.348L13.004 11.59V2.468C10.972 3.115 9.15005 4.423 7.89005 6.17L7.76205 6.348Z" fill="white"/>
</g>
<defs>
<clipPath id="clip0_171_12413">
<rect width="24" height="24" fill="white"/>
</clipPath>
</defs>
</svg>
